<?xml version="1.0" encoding="UTF-8" standalone="no"?><!DOCTYPE svg PUBLIC "-//W3C//DTD SVG 1.1//EN" "http://www.w3.org/Graphics/SVG/1.1/DTD/svg11.dtd"><svg width="100%" height="100%" viewBox="0 0 11793 23806" version="1.1" xmlns="http://www.w3.org/2000/svg" xmlns:xlink="http://www.w3.org/1999/xlink" xml:space="preserve" xmlns:serif="http://www.serif.com/" style="fill-rule:evenodd;clip-rule:evenodd;stroke-linejoin:round;stroke-miterlimit:2;"><rect id="scientific-techniques" serif:id="scientific techniques" x="0" y="0" width="11792" height="23805.3" style="fill:none;"/><clipPath id="_clip1"><rect x="0" y="0" width="11792" height="23805.3"/></clipPath><g clip-path="url(#_clip1)"><clipPath id="_clip2"><rect x="2079.1" y="50.273" width="10179" height="3121.79"/></clipPath><g clip-path="url(#_clip2)"><rect x="-1595.44" y="50.273" width="13853.5" height="7864.76" style="fill:#fff;"/></g><rect x="-762.383" y="-19.296" width="13853.5" height="24333.8" style="fill:#62aae2;"/><g transform="matrix(2.08333,0,0,2.08333,-13779.2,-860.645)"><text x="7004.99px" y="2469.02px" style="font-family:'Nunito-Bold', 'Nunito';font-weight:700;font-size:96px;">T<tspan x="7068.93px " y="2469.02px ">h</tspan>is <tspan x="7221.37px " y="2469.02px ">i</tspan>s <tspan x="7317.65px 7401.45px " y="2469.02px 2469.02px ">wh</tspan>en <tspan x="7590.08px 7639.81px " y="2469.02px 2469.02px ">yo</tspan>u <tspan x="7775.93px " y="2469.02px ">i</tspan>solate <tspan x="8090.03px " y="2469.02px ">t</tspan>he <tspan x="8257.93px " y="2469.02px ">b</tspan>ac<tspan x="8414.6px " y="2469.02px ">t</tspan>eria. <tspan x="8663.14px 8721.31px 8745.69px 8781.98px 8828.06px 8863.49px 8888.82px " y="2469.02px 2469.02px 2469.02px 2469.02px 2469.02px 2469.02px 2469.02px ">First i</tspan>n <tspan x="8994.7px 9046.54px 9071.88px " y="2469.02px 2469.02px 2469.02px ">a l</tspan>ab <tspan x="9231.13px 9280.86px " y="2469.02px 2469.02px ">yo</tspan>u <tspan x="9416.98px 9500.78px " y="2469.02px 2469.02px ">wi</tspan>ll <tspan x="9599.27px " y="2469.02px ">h</tspan>av<tspan x="9757px 9807.98px 9833.31px " y="2469.02px 2469.02px 2469.02px ">e t</tspan>o <tspan x="9949.27px 9973.65px 10023.5px " y="2469.02px 2469.02px 2469.02px ">lys</tspan>e <tspan x="10146.3px " y="2469.02px ">t</tspan>he <tspan x="10314.2px " y="2469.02px ">c</tspan>ells <tspan x="10532.7px " y="2469.02px ">t</tspan>o <tspan x="10648.7px 10684.5px " y="2469.02px 2469.02px ">re</tspan>lease <tspan x="10985.5px " y="2469.02px ">t</tspan>he <tspan x="11153.4px " y="2469.02px ">D</tspan>NA<tspan x="11370.7px 11394.5px 11419.8px 11483.8px " y="2469.02px 2469.02px 2469.02px 2469.02px ">. Th</tspan>en <tspan x="11672.4px " y="2469.02px ">t</tspan>he</text><text x="7004.99px" y="2565.02px" style="font-family:'Nunito-Bold', 'Nunito';font-weight:700;font-size:96px;">scientis<tspan x="7335.81px 7371.23px 7396.72px 7480.53px " y="2565.02px 2565.02px 2565.02px 2565.02px ">t wi</tspan>ll <tspan x="7579.18px " y="2565.02px ">h</tspan>av<tspan x="7736.9px 7787.88px 7813.37px " y="2565.02px 2565.02px 2565.02px ">e t</tspan>o <tspan x="7929.49px " y="2565.02px ">s</tspan>epar<tspan x="8173.14px " y="2565.02px ">a</tspan>te <tspan x="8336.87px " y="2565.02px ">D</tspan>NA<tspan x="8554.12px 8577.92px 8603.42px " y="2565.02px 2565.02px 2565.02px ">, c</tspan>ellular <tspan x="8944.08px " y="2565.02px ">d</tspan>ebris<tspan x="9217.68px 9241.49px 9266.98px " y="2565.02px 2565.02px 2565.02px ">, a</tspan>nd <tspan x="9458.17px 9515.86px 9551.67px 9606.58px " y="2565.02px 2565.02px 2565.02px 2565.02px ">prot</tspan>eins <tspan x="9845.58px " y="2565.02px ">t</tspan>hat <tspan x="10049.9px 10131.3px 10182.3px 10218.1px 10269.1px 10294.6px 10378.4px 10404.8px " y="2565.02px 2565.02px 2565.02px 2565.02px 2565.02px 2565.02px 2565.02px 2565.02px ">were wit</tspan>hin <tspan x="10602.4px " y="2565.02px ">t</tspan>he <tspan x="10770.5px " y="2565.02px ">c</tspan>ell. <tspan x="10966.4px 11030.3px " y="2565.02px 2565.02px ">Th</tspan>en <tspan x="11219.1px " y="2565.02px ">D</tspan>NA <tspan x="11459.9px " y="2565.02px ">m</tspan>us<tspan x="11645.4px 11680.8px 11706.3px " y="2565.02px 2565.02px 2565.02px ">t b</tspan>e</text><text x="7004.99px" y="2661.02px" style="font-family:'Nunito-Bold', 'Nunito';font-weight:700;font-size:96px;">pr<tspan x="7098.49px " y="2661.02px ">e</tspan>cipi<tspan x="7304.8px " y="2661.02px ">t</tspan>ated w<tspan x="7645.98px 7672.38px " y="2661.02px 2661.02px ">it</tspan>h alcohol, cleaned, and then conﬁrmed b<tspan x="9488.13px " y="2661.02px ">y</tspan> a spec<tspan x="9844.86px 9880.29px 9916.09px " y="2661.02px 2661.02px 2661.02px ">tro</tspan>pho<tspan x="10140.1px " y="2661.02px ">t</tspan>ome<tspan x="10364.8px " y="2661.02px ">t</tspan>er<tspan x="10485.8px " y="2661.02px ">.</tspan></text></g><text x="787.53px" y="1339.24px" style="font-family:'Nunito-Bold', 'Nunito';font-weight:700;font-size:1041.67px;">Scientiﬁc T<tspan x="6021.9px " y="1339.24px ">e</tspan>chniques</text><text x="815.932px" y="2199.79px" style="font-family:'Nunito-Bold', 'Nunito';font-weight:700;font-size:625px;">Amplicon P<tspan x="4125.31px " y="2199.79px ">u</tspan>riﬁcation:</text><text x="777.175px" y="3965.29px" style="font-family:'Nunito-Bold', 'Nunito';font-weight:700;font-size:625px;">DNA Isolation/Extr<tspan x="6162.18px 6499.68px 6806.55px " y="3965.29px 3965.29px 3965.29px ">act</tspan>ion:</text><g transform="matrix(2.08333,0,0,2.08333,-13769.6,-2583.9)"><text x="7004.99px" y="2469.02px" style="font-family:'Nunito-Bold', 'Nunito';font-weight:700;font-size:96px;">DNA <tspan x="7253.71px " y="2469.02px ">s</tspan>equencing <tspan x="7790.53px " y="2469.02px ">i</tspan>s <tspan x="7894.87px " y="2469.02px ">i</tspan>mpor<tspan x="8157.05px " y="2469.02px ">t</tspan>ant <tspan x="8369.29px " y="2469.02px ">a</tspan>nd <tspan x="8568.39px " y="2469.02px ">n</tspan>eeded <tspan x="8926.26px " y="2469.02px ">i</tspan>n <tspan x="9040.2px 9095.4px 9131.21px " y="2469.02px 2469.02px 2469.02px ">ord</tspan>er <tspan x="9310.04px 9343.93px " y="2469.02px 2469.02px ">fo</tspan>r <tspan x="9469.3px " y="2469.02px ">t</tspan>he <tspan x="9645.25px " y="2469.02px ">s</tspan>equencing <tspan x="10182.1px " y="2469.02px ">t</tspan>o <tspan x="10306.1px " y="2469.02px ">g</tspan>o <tspan x="10452.8px " y="2469.02px ">s</tspan>moo<tspan x="10693.2px " y="2469.02px ">t</tspan>hly<tspan x="10856.1px 10879.9px 10913.3px 11024.2px " y="2469.02px 2469.02px 2469.02px 2469.02px ">. Wh</tspan>en <tspan x="11220.9px 11302.3px 11353.3px 11386.7px " y="2469.02px 2469.02px 2469.02px 2469.02px ">we c</tspan>heck <tspan x="11672.4px " y="2469.02px ">t</tspan>he</text><text x="7004.99px" y="2565.02px" style="font-family:'Nunito-Bold', 'Nunito';font-weight:700;font-size:96px;">P<tspan x="7067.58px " y="2565.02px ">u</tspan>ri<tspan x="7186.34px 7222.53px 7273.02px 7298.02px 7352.93px 7387.3px 7412.29px " y="2565.02px 2565.02px 2565.02px 2565.02px 2565.02px 2565.02px 2565.02px ">ty of t</tspan>he <tspan x="7579.84px 7642.24px " y="2565.02px 2565.02px ">PC</tspan>R <tspan x="7799.04px " y="2565.02px ">a</tspan>t <tspan x="7911.3px " y="2565.02px ">2</tspan>60 <tspan x="8109.19px " y="2565.02px ">a</tspan>nd <tspan x="8299.88px " y="2565.02px ">2</tspan>80 <tspan x="8497.76px " y="2565.02px ">n</tspan>m <tspan x="8662.73px 8744.23px 8796.07px 8845.8px " y="2565.02px 2565.02px 2565.02px 2565.02px ">wave</tspan>length <tspan x="9202.95px 9284.36px 9335.33px 9360.33px " y="2565.02px 2565.02px 2565.02px 2565.02px ">we a</tspan>lw<tspan x="9518.05px 9569.89px 9619.72px 9666.28px 9691.27px 9749.35px 9799.66px 9835.08px 9860.07px " y="2565.02px 2565.02px 2565.02px 2565.02px 2565.02px 2565.02px 2565.02px 2565.02px 2565.02px ">ays get 1</tspan>.8 <tspan x="10024.1px " y="2565.02px ">b</tspan>ecause <tspan x="10409.5px 10435.9px " y="2565.02px 2565.02px ">it</tspan>&apos;s <tspan x="10566.2px 10618px 10643px 10677.4px 10713.9px " y="2565.02px 2565.02px 2565.02px 2565.02px 2565.02px ">a fra</tspan>gment <tspan x="11075.2px " y="2565.02px ">t</tspan>hat&apos;s <tspan x="11348.8px " y="2565.02px ">p</tspan>ur<tspan x="11497.9px 11548.9px 11573.9px " y="2565.02px 2565.02px 2565.02px ">e D</tspan>NA<tspan x="11791.1px " y="2565.02px ">.</tspan></text><text x="7004.99px" y="2661.02px" style="font-family:'Nunito-Bold', 'Nunito';font-weight:700;font-size:96px;">P<tspan x="7067.58px " y="2661.02px ">u</tspan>riﬁcation <tspan x="7539.9px " y="2661.02px ">i</tspan>s <tspan x="7637.82px " y="2661.02px ">i</tspan>mpor<tspan x="7900px " y="2661.02px ">t</tspan>ant <tspan x="8105.82px " y="2661.02px ">b</tspan>ecause <tspan x="8493.27px " y="2661.02px ">i</tspan>f <tspan x="8579px " y="2661.02px ">t</tspan>her<tspan x="8757.37px 8808.34px 8835.32px " y="2661.02px 2661.02px 2661.02px ">e i</tspan>s <tspan x="8933.24px " y="2661.02px ">a</tspan>ny <tspan x="9118.71px " y="2661.02px ">c</tspan>ontamination <tspan x="9778.52px 9836.21px 9872.02px " y="2661.02px 2661.02px 2661.02px ">pre</tspan>sent <tspan x="10139.1px " y="2661.02px ">t</tspan>he <tspan x="10308.6px " y="2661.02px ">a</tspan>mpliﬁcation <tspan x="10906.3px 10987.7px " y="2661.02px 2661.02px ">wo</tspan>uld <tspan x="11207.6px 11263.7px 11318.6px 11354.1px 11381px " y="2661.02px 2661.02px 2661.02px 2661.02px 2661.02px ">not o</tspan>ccur <tspan x="11649.3px " y="2661.02px ">a</tspan>nd</text><text x="7004.99px" y="2757.02px" style="font-family:'Nunito-Bold', 'Nunito';font-weight:700;font-size:96px;">i<tspan x="7031.39px " y="2757.02px ">t</tspan> w<tspan x="7174.24px " y="2757.02px ">o</tspan>uld disrup<tspan x="7671.52px " y="2757.02px ">t</tspan> the DNA sequencing pr<tspan x="8765.82px " y="2757.02px ">o</tspan>cedur<tspan x="9067.93px " y="2757.02px ">e</tspan>.</text></g><g transform="matrix(2.08333,0,0,2.08333,-13762.8,2449.61)"><text x="7004.99px" y="2469.02px" style="font-family:'Nunito-Bold', 'Nunito';font-weight:700;font-size:96px;">T<tspan x="7068.93px " y="2469.02px ">h</tspan>is is a technique used to dis<tspan x="8338.72px " y="2469.02px ">t</tspan>inguish t<tspan x="8757.66px 8839.07px " y="2469.02px 2469.02px ">wo</tspan> dif<tspan x="9035.87px 9069.76px 9120.74px 9156.54px " y="2469.02px 2469.02px 2469.02px 2469.02px ">fere</tspan>nt t<tspan x="9361.31px " y="2469.02px ">y</tspan>pes o<tspan x="9647.97px " y="2469.02px ">f</tspan> bac<tspan x="9865.02px " y="2469.02px ">t</tspan>eria based on w<tspan x="10602.4px " y="2469.02px ">h</tspan>at cons<tspan x="10976.1px 11011.6px 11038px " y="2469.02px 2469.02px 2469.02px ">tit</tspan>utes their cell</text><text x="7004.99px" y="2565.02px" style="font-family:'Nunito-Bold', 'Nunito';font-weight:700;font-size:96px;">w<tspan x="7086.49px " y="2565.02px ">a</tspan>ll. T<tspan x="7300.86px " y="2565.02px ">h</tspan>e t<tspan x="7470.21px 7551.61px " y="2565.02px 2565.02px ">wo</tspan> gr<tspan x="7726.72px " y="2565.02px ">o</tspan>ups ar<tspan x="8055.42px " y="2565.02px ">e</tspan> gr<tspan x="8227.07px " y="2565.02px ">a</tspan>m negativ<tspan x="8715.33px " y="2565.02px ">e</tspan> and gr<tspan x="9078.69px " y="2565.02px ">a</tspan>m posi<tspan x="9426.21px " y="2565.02px ">t</tspan>iv<tspan x="9535.74px " y="2565.02px ">e</tspan>. T<tspan x="9700.48px " y="2565.02px ">h</tspan>er<tspan x="9843.42px " y="2565.02px ">e</tspan> ar<tspan x="10008.1px " y="2565.02px ">e</tspan> a series o<tspan x="10500.1px " y="2565.02px ">f</tspan> s<tspan x="10606.5px " y="2565.02px ">t</tspan>eps in this pr<tspan x="11211.8px " y="2565.02px ">o</tspan>cess: F<tspan x="11566px 11590.3px 11626.6px 11672.7px " y="2565.02px 2565.02px 2565.02px 2565.02px ">irst</tspan></text><text x="7004.99px" y="2661.02px" style="font-family:'Nunito-Bold', 'Nunito';font-weight:700;font-size:96px;">the bac<tspan x="7330.24px " y="2661.02px ">t</tspan>eria is put on a slide that is heat ﬁx<tspan x="8903.68px " y="2661.02px ">e</tspan>d so i<tspan x="9192.54px " y="2661.02px ">t</tspan> w<tspan x="9337.79px " y="2661.02px ">i</tspan>ll s<tspan x="9483.04px " y="2661.02px ">t</tspan>ay on the slide, i<tspan x="10233px " y="2661.02px ">t</tspan> is s<tspan x="10437.5px " y="2661.02px ">t</tspan>ained w<tspan x="10823.8px 10850.2px " y="2661.02px 2661.02px ">it</tspan>h the cr<tspan x="11222.8px 11272.7px 11318.8px " y="2661.02px 2661.02px 2661.02px ">yst</tspan>al v<tspan x="11508.5px " y="2661.02px ">i</tspan>ole<tspan x="11662.8px " y="2661.02px ">t</tspan></text><text x="7004.99px" y="2757.02px" style="font-family:'Nunito-Bold', 'Nunito';font-weight:700;font-size:96px;">or gr<tspan x="7217.63px " y="2757.02px ">a</tspan>m s<tspan x="7425.38px " y="2757.02px ">t</tspan>ain f<tspan x="7653.09px " y="2757.02px ">o</tspan>r one minute, then iodine is intr<tspan x="9083.87px " y="2757.02px ">o</tspan>duced to the bac<tspan x="9875.77px " y="2757.02px ">t</tspan>eria w<tspan x="10185px " y="2757.02px ">h</tspan>ich mak<tspan x="10581px " y="2757.02px ">e</tspan>s the cr<tspan x="10959.6px 11009.4px 11055.5px " y="2757.02px 2757.02px 2757.02px ">yst</tspan>al v<tspan x="11245.3px " y="2757.02px ">i</tspan>ole<tspan x="11399.6px " y="2757.02px ">t</tspan> s<tspan x="11507.1px " y="2757.02px ">t</tspan>ick to</text><text x="7004.99px" y="2853.02px" style="font-family:'Nunito-Bold', 'Nunito';font-weight:700;font-size:96px;">the cell w<tspan x="7427.68px " y="2853.02px ">a</tspan>ll f<tspan x="7588.19px " y="2853.02px ">o</tspan>r one minute, then an alcohol is applied to decoloriz<tspan x="9912.93px " y="2853.02px ">e</tspan> the cell f<tspan x="10365px " y="2853.02px ">o</tspan>r thr<tspan x="10610.4px " y="2853.02px ">e</tspan>e seconds<tspan x="11097.9px " y="2853.02px ">,</tspan> af<tspan x="11231.3px " y="2853.02px ">t</tspan>er a</text><text x="7004.99px" y="2949.02px" style="font-family:'Nunito-Bold', 'Nunito';font-weight:700;font-size:96px;">secondar<tspan x="7409.92px " y="2949.02px ">y</tspan> s<tspan x="7532.51px " y="2949.02px ">t</tspan>ain s<tspan x="7772.41px " y="2949.02px ">t</tspan>afrin is put onto the the slide w<tspan x="9188.03px 9214.43px " y="2949.02px 2949.02px ">it</tspan>h the bac<tspan x="9657.28px " y="2949.02px ">t</tspan>eria f<tspan x="9916.58px " y="2949.02px ">o</tspan>r one minute, then rinse w<tspan x="11128.5px 11154.9px " y="2949.02px 2949.02px ">it</tspan>h w<tspan x="11354px " y="2949.02px ">a</tspan>ter</text><text x="7004.99px" y="3045.02px" style="font-family:'Nunito-Bold', 'Nunito';font-weight:700;font-size:96px;">brie<tspan x="7174.53px " y="3045.02px ">ﬂ</tspan>y maximum o<tspan x="7825.02px " y="3045.02px ">f</tspan> ﬁv<tspan x="7993.89px " y="3045.02px ">e</tspan> seconds<tspan x="8430.4px " y="3045.02px ">.</tspan> A<tspan x="8550.69px 8582.46px " y="3045.02px 3045.02px ">ft</tspan>er e<tspan x="8781.66px 8832.26px " y="3045.02px 3045.02px ">xa</tspan>mine the slide under a micr<tspan x="10075.9px " y="3045.02px ">o</tspan>scope to de<tspan x="10639.1px " y="3045.02px ">t</tspan>ermine if i<tspan x="11114.8px " y="3045.02px ">t</tspan> is gr<tspan x="11367.8px " y="3045.02px ">a</tspan>m</text><text x="7004.99px" y="3141.02px" style="font-family:'Nunito-Bold', 'Nunito';font-weight:700;font-size:96px;">posi<tspan x="7190.85px " y="3141.02px ">t</tspan>iv<tspan x="7300.38px " y="3141.02px ">e</tspan> or negativ<tspan x="7821.95px " y="3141.02px ">e</tspan>.</text></g><text x="793.196px" y="5388.42px" style="font-family:'Nunito-Bold', 'Nunito';font-weight:700;font-size:625px;">DNA Sequencing:</text><text x="806.077px" y="7275.54px" style="font-family:'Nunito-Bold', 'Nunito';font-weight:700;font-size:625px;">Gr<tspan x="1502.33px " y="7275.54px ">a</tspan>m S<tspan x="2949.2px " y="7275.54px ">t</tspan>aining:</text><g transform="matrix(2.08333,0,0,2.08333,-13761.1,604.732)"><text x="7004.99px" y="2469.02px" style="font-family:'Nunito-Bold', 'Nunito';font-weight:700;font-size:96px;">T<tspan x="7068.93px " y="2469.02px ">h</tspan>is <tspan x="7234.51px 7292.2px 7342.51px " y="2469.02px 2469.02px 2469.02px ">det</tspan>ermines <tspan x="7766.04px " y="2469.02px ">t</tspan>he <tspan x="7947.08px 8002.28px 8038.09px " y="2469.02px 2469.02px 2469.02px ">ord</tspan>er <tspan x="8222.01px 8276.92px 8311.29px 8349.76px " y="2469.02px 2469.02px 2469.02px 2469.02px ">of t</tspan>he <tspan x="8530.8px " y="2469.02px ">n</tspan>ucleo<tspan x="8819.67px " y="2469.02px ">t</tspan>ide <tspan x="9026.62px " y="2469.02px ">b</tspan>ase <tspan x="9272.18px " y="2469.02px ">p</tspan>air<tspan x="9442.38px 9488.94px 9527.42px " y="2469.02px 2469.02px 2469.02px ">s i</tspan>n <tspan x="9646.44px 9698.28px 9736.76px " y="2469.02px 2469.02px 2469.02px ">a D</tspan>NA <tspan x="9990.57px " y="2469.02px ">m</tspan>olecule. <tspan x="10445px 10508.9px " y="2469.02px 2469.02px ">Th</tspan>is <tspan x="10674.5px " y="2469.02px ">c</tspan>an <tspan x="10867.9px " y="2469.02px ">t</tspan>ell <tspan x="11041.5px " y="2469.02px ">s</tspan>cientis<tspan x="11372.3px " y="2469.02px ">t</tspan>s <tspan x="11492.8px " y="2469.02px ">g</tspan>ene<tspan x="11708.3px " y="2469.02px ">t</tspan>ic</text><text x="7004.99px" y="2565.02px" style="font-family:'Nunito-Bold', 'Nunito';font-weight:700;font-size:96px;">inf<tspan x="7119.42px " y="2565.02px ">o</tspan>rmation <tspan x="7542.82px " y="2565.02px ">a</tspan>bout <tspan x="7823.17px " y="2565.02px ">t</tspan>he <tspan x="7990.34px " y="2565.02px ">c</tspan>arrier<tspan x="8272.49px 8296.3px 8320.91px 8384.84px " y="2565.02px 2565.02px 2565.02px 2565.02px ">. Th</tspan>is <tspan x="8536.56px " y="2565.02px ">i</tspan>s <tspan x="8632.11px " y="2565.02px ">u</tspan>sed <tspan x="8867.54px " y="2565.02px ">c</tspan>ommonly <tspan x="9348.05px 9431.86px " y="2565.02px 2565.02px ">wh</tspan>en <tspan x="9619.77px " y="2565.02px ">s</tspan>cientis<tspan x="9950.59px " y="2565.02px ">t</tspan>s <tspan x="10057.2px 10138.7px " y="2565.02px 2565.02px ">wa</tspan>nt <tspan x="10306.7px " y="2565.02px ">t</tspan>o <tspan x="10422px " y="2565.02px ">ﬁ</tspan>nd <tspan x="10619.2px " y="2565.02px ">o</tspan>ut <tspan x="10790px 10873.8px " y="2565.02px 2565.02px ">wh</tspan>ich <tspan x="11082px " y="2565.02px ">D</tspan>NA <tspan x="11321.9px 11379.6px 11429.9px " y="2565.02px 2565.02px 2565.02px ">det</tspan>ermines</text><text x="7004.99px" y="2661.02px" style="font-family:'Nunito-Bold', 'Nunito';font-weight:700;font-size:96px;">cer<tspan x="7143.9px " y="2661.02px ">t</tspan>ain <tspan x="7351.23px " y="2661.02px ">g</tspan>enes<tspan x="7613.5px 7637.31px 7676.82px 7732.98px 7787.41px 7869.59px 7909.1px " y="2661.02px 2661.02px 2661.02px 2661.02px 2661.02px 2661.02px 2661.02px ">, how t</tspan>he<tspan x="8050.89px 8101.39px 8140.9px 8224.71px " y="2661.02px 2661.02px 2661.02px 2661.02px ">y wi</tspan>ll <tspan x="8337.38px " y="2661.02px ">b</tspan>e <tspan x="8485.57px " y="2661.02px ">a</tspan>ble <tspan x="8709.98px " y="2661.02px ">t</tspan>o <tspan x="8840.11px " y="2661.02px ">t</tspan>urn <tspan x="9063.57px 9118.48px 9151.98px 9186.35px 9225.86px " y="2661.02px 2661.02px 2661.02px 2661.02px 2661.02px ">off o</tspan>r <tspan x="9357.35px " y="2661.02px ">o</tspan>n <tspan x="9508.22px 9560.06px 9599.58px " y="2661.02px 2661.02px 2661.02px ">a c</tspan>er<tspan x="9738.49px " y="2661.02px ">t</tspan>ain <tspan x="9945.81px " y="2661.02px ">g</tspan>ene, <tspan x="10225.3px " y="2661.02px ">o</tspan>r <tspan x="10356.8px 10440.6px " y="2661.02px 2661.02px ">wh</tspan>at <tspan x="10623.6px " y="2661.02px ">p</tspan>iece <tspan x="10893.9px 10948.9px 10983.2px 11022.7px " y="2661.02px 2661.02px 2661.02px 2661.02px ">of D</tspan>NA <tspan x="11277.6px " y="2661.02px ">c</tspan>arries <tspan x="11611.2px " y="2661.02px ">t</tspan>heir</text><text x="7004.99px" y="2757.02px" style="font-family:'Nunito-Bold', 'Nunito';font-weight:700;font-size:96px;">r<tspan x="7040.8px " y="2757.02px ">e</tspan>gulator<tspan x="7411.94px 7462.43px 7488.82px " y="2757.02px 2757.02px 2757.02px ">y i</tspan>ns<tspan x="7615.45px " y="2757.02px ">t</tspan>ruc<tspan x="7790.36px " y="2757.02px ">t</tspan>ions<tspan x="8007.61px 8031.42px 8057.81px 8121.74px " y="2757.02px 2757.02px 2757.02px 2757.02px ">. Th</tspan>is <tspan x="8275.24px " y="2757.02px ">u</tspan>sed <tspan x="8512.45px " y="2757.02px ">t</tspan>o <tspan x="8629.47px " y="2757.02px ">b</tspan>e <tspan x="8764.53px 8816.38px 8842.77px 8892.5px 8943.47px 8983.12px 9033.62px 9060.01px " y="2757.02px 2757.02px 2757.02px 2757.02px 2757.02px 2757.02px 2757.02px 2757.02px ">a very l</tspan>ong <tspan x="9280.23px " y="2757.02px ">a</tspan>nd <tspan x="9472.32px 9522.33px " y="2757.02px 2757.02px ">ex</tspan>pensiv<tspan x="9858.91px 9909.88px 9936.28px 9993.97px 10029.8px " y="2757.02px 2757.02px 2757.02px 2757.02px 2757.02px ">e pro</tspan>cess <tspan x="10302.3px " y="2757.02px ">u</tspan>ntil <tspan x="10524.6px " y="2757.02px ">t</tspan>he <tspan x="10693.6px " y="2757.02px ">c</tspan>omple<tspan x="11011.8px " y="2757.02px ">t</tspan>ion <tspan x="11209.4px 11264.3px 11298.7px 11325.1px " y="2757.02px 2757.02px 2757.02px 2757.02px ">of t</tspan>he <tspan x="11494px " y="2757.02px ">H</tspan>uman</text><text x="7004.99px" y="2853.02px" style="font-family:'Nunito-Bold', 'Nunito';font-weight:700;font-size:96px;">Genome P<tspan x="7460.9px 7496.7px " y="2853.02px 2853.02px ">ro</tspan>jec<tspan x="7674.4px " y="2853.02px ">t</tspan> w<tspan x="7819.65px " y="2853.02px ">h</tspan>ich has made i<tspan x="8506.53px " y="2853.02px ">t</tspan> f<tspan x="8601.85px 8653.69px 8699.77px " y="2853.02px 2853.02px 2853.02px ">ast</tspan>er and less e<tspan x="9285.18px " y="2853.02px ">x</tspan>pensiv<tspan x="9621.76px " y="2853.02px ">e</tspan>.</text></g><g transform="matrix(2.08333,0,0,2.08333,-13756.7,4873.8)"><text x="7004.99px" y="2469.02px" style="font-family:'Nunito-Bold', 'Nunito';font-weight:700;font-size:96px;">Enables <tspan x="7379.77px " y="2469.02px ">t</tspan>he <tspan x="7552.96px " y="2469.02px ">s</tspan>cientis<tspan x="7883.77px " y="2469.02px ">t</tspan>s <tspan x="7996.38px " y="2469.02px ">t</tspan>o <tspan x="8117.63px " y="2469.02px ">c</tspan>onnec<tspan x="8430.11px 8465.53px 8496.15px " y="2469.02px 2469.02px 2469.02px ">t m</tspan>ul<tspan x="8661.95px " y="2469.02px ">t</tspan>iple <tspan x="8885.43px " y="2469.02px ">s</tspan>equencing <tspan x="9419.48px 9477.18px 9527.38px 9579.51px " y="2469.02px 2469.02px 2469.02px 2469.02px ">devi</tspan>ces <tspan x="9778.9px " y="2469.02px ">t</tspan>o <tspan x="9900.15px 9926.55px 9961.97px 9992.6px " y="2469.02px 2469.02px 2469.02px 2469.02px ">it a</tspan>nd <tspan x="10188.9px " y="2469.02px ">a</tspan>ll <tspan x="10320.1px " y="2469.02px ">t</tspan>he <tspan x="10493.3px 10552.1px 10601.8px 10652.8px 10683.4px 10742.2px 10796.6px 10878.8px 10909.4px " y="2469.02px 2469.02px 2469.02px 2469.02px 2469.02px 2469.02px 2469.02px 2469.02px 2469.02px ">ﬁve ﬂow c</tspan>ell <tspan x="11086.6px " y="2469.02px ">p</tspan>osi<tspan x="11272.5px " y="2469.02px ">t</tspan>ions <tspan x="11520.8px " y="2469.02px ">c</tspan>an <tspan x="11706.3px " y="2469.02px ">b</tspan>e</text><text x="7004.99px" y="2565.02px" style="font-family:'Nunito-Bold', 'Nunito';font-weight:700;font-size:96px;">used f<tspan x="7275.71px " y="2565.02px ">o</tspan>r one e<tspan x="7632.06px " y="2565.02px ">x</tspan>periment<tspan x="8081.25px " y="2565.02px ">.</tspan></text></g><text x="803.807px" y="9699.74px" style="font-family:'Nunito-Bold', 'Nunito';font-weight:700;font-size:625px;">GridION</text><g transform="matrix(2.08333,0,0,2.08333,-13752.4,7397.66)"><text x="7004.99px" y="2469.02px" style="font-family:'Nunito-Bold', 'Nunito';font-weight:700;font-size:96px;">T<tspan x="7068.93px " y="2469.02px ">h</tspan>is is used to count the number o<tspan x="8538.21px " y="2469.02px ">f</tspan> dif<tspan x="8714.17px 8748.06px 8799.04px 8834.85px " y="2469.02px 2469.02px 2469.02px 2469.02px ">fere</tspan>nt micr<tspan x="9194.27px " y="2469.02px ">o</tspan>or<tspan x="9340.48px " y="2469.02px ">g</tspan>anisms in a mixtur<tspan x="10204.4px " y="2469.02px ">e</tspan>. T<tspan x="10369.1px " y="2469.02px ">h</tspan>e mixtur<tspan x="10788.4px " y="2469.02px ">e</tspan> is usually added to a</text><text x="7004.99px" y="2565.02px" style="font-family:'Nunito-Bold', 'Nunito';font-weight:700;font-size:96px;">mol<tspan x="7170.4px " y="2565.02px ">t</tspan>en agar medium w<tspan x="8029.6px " y="2565.02px ">h</tspan>ich w<tspan x="8322.98px " y="2565.02px ">i</tspan>ll allo<tspan x="8577.18px " y="2565.02px ">w</tspan> f<tspan x="8719.26px " y="2565.02px ">o</tspan>r the colonies to e<tspan x="9558.4px 9608.13px " y="2565.02px 2565.02px ">ve</tspan>nly be disbur<tspan x="10229.1px " y="2565.02px ">s</tspan>ed and gr<tspan x="10695.9px 10750.3px 10828.9px " y="2565.02px 2565.02px 2565.02px ">ow.</tspan></text></g><text x="803.117px" y="10838.4px" style="font-family:'Nunito-Bold', 'Nunito';font-weight:700;font-size:625px;">minION</text><text x="806.962px" y="12203.4px" style="font-family:'Nunito-Bold', 'Nunito';font-weight:700;font-size:625px;">Nanopor<tspan x="3304.46px " y="12203.4px ">e</tspan> Sequencing</text><g transform="matrix(2.08333,0,0,2.08333,-13759.5,6054.67)"><text x="7004.99px" y="2469.02px" style="font-family:'Nunito-Bold', 'Nunito';font-weight:700;font-size:96px;">T<tspan x="7068.93px " y="2469.02px ">h</tspan>is <tspan x="7222.49px 7280.18px 7315.99px " y="2469.02px 2469.02px 2469.02px ">pro</tspan>cedur<tspan x="7618.1px 7669.08px 7695.53px " y="2469.02px 2469.02px 2469.02px ">e t</tspan>ak<tspan x="7833.58px " y="2469.02px ">e</tspan>s <tspan x="7957.57px " y="2469.02px ">b</tspan>ac<tspan x="8114.24px " y="2469.02px ">t</tspan>eria <tspan x="8340.09px 8374.46px 8410.27px " y="2469.02px 2469.02px 2469.02px ">fro</tspan>m <tspan x="8575.73px " y="2469.02px ">c</tspan>olonies <tspan x="8961.9px " y="2469.02px ">a</tspan>nd <tspan x="9154.05px " y="2469.02px ">i</tspan>solates <tspan x="9515.83px " y="2469.02px ">t</tspan>hem <tspan x="9768.66px " y="2469.02px ">i</tspan>nto <tspan x="9966.28px 10018.1px 10044.6px " y="2469.02px 2469.02px 2469.02px ">a p</tspan>ur<tspan x="10193.7px 10244.6px 10271.1px " y="2469.02px 2469.02px 2469.02px ">e c</tspan>ul<tspan x="10399.9px " y="2469.02px ">t</tspan>ur<tspan x="10526.7px " y="2469.02px ">e</tspan>. <tspan x="10628px " y="2469.02px ">I</tspan>n <tspan x="10737.6px " y="2469.02px ">t</tspan>his <tspan x="10926.6px 10984.3px 11020.1px " y="2469.02px 2469.02px 2469.02px ">pro</tspan>cedur<tspan x="11322.2px 11373.1px 11399.6px 11451.4px 11477.9px " y="2469.02px 2469.02px 2469.02px 2469.02px 2469.02px ">e a m</tspan>ixtur<tspan x="11764px " y="2469.02px ">e</tspan></text><text x="7004.99px" y="2565.02px" style="font-family:'Nunito-Bold', 'Nunito';font-weight:700;font-size:96px;">o<tspan x="7059.9px 7094.27px 7120.57px " y="2565.02px 2565.02px 2565.02px ">f c</tspan>ells <tspan x="7340.03px 7391.87px 7427.68px 7478.65px 7504.96px 7551.04px 7586.46px 7622.27px " y="2565.02px 2565.02px 2565.02px 2565.02px 2565.02px 2565.02px 2565.02px 2565.02px ">are stre</tspan>ak<tspan x="7775.87px " y="2565.02px ">e</tspan>d <tspan x="7910.84px 7965.28px 8015px " y="2565.02px 2565.02px 2565.02px ">ove</tspan>r <tspan x="8129.05px " y="2565.02px ">a</tspan>n <tspan x="8263.35px " y="2565.02px ">a</tspan>gar <tspan x="8488.18px " y="2565.02px ">n</tspan>utrient <tspan x="8865.37px " y="2565.02px ">b</tspan>ased <tspan x="9156.44px " y="2565.02px ">m</tspan>edium. <tspan x="9562.81px 9626.74px " y="2565.02px 2565.02px ">Th</tspan>e <tspan x="9760.18px " y="2565.02px ">c</tspan>ells <tspan x="9979.64px 10031.5px 10067.3px 10118.3px 10144.6px 10190.6px 10226.1px 10261.9px " y="2565.02px 2565.02px 2565.02px 2565.02px 2565.02px 2565.02px 2565.02px 2565.02px ">are stre</tspan>ak<tspan x="10415.5px " y="2565.02px ">e</tspan>d <tspan x="10550.5px " y="2565.02px ">i</tspan>n <tspan x="10657.3px 10709.1px 10735.4px 10793.1px 10843.4px " y="2565.02px 2565.02px 2565.02px 2565.02px 2565.02px ">a pet</tspan>ri <tspan x="10966.3px " y="2565.02px ">d</tspan>ish <tspan x="11177.4px 11211.3px " y="2565.02px 2565.02px ">fo</tspan>ur <tspan x="11385.2px " y="2565.02px ">t</tspan>imes <tspan x="11652.6px " y="2565.02px ">o</tspan>ne</text><text x="7004.99px" y="2661.02px" style="font-family:'Nunito-Bold', 'Nunito';font-weight:700;font-size:96px;">in each quadr<tspan x="7602.78px " y="2661.02px ">a</tspan>nt<tspan x="7748.13px " y="2661.02px ">.</tspan></text></g><g transform="matrix(2.08333,0,0,2.08333,-13772.9,10352.7)"><text x="7004.99px" y="2469.02px" style="font-family:'Nunito-Bold', 'Nunito';font-weight:700;font-size:96px;">T<tspan x="7068.93px " y="2469.02px ">h</tspan>is is used to count the number o<tspan x="8538.21px " y="2469.02px ">f</tspan> dif<tspan x="8714.17px 8748.06px 8799.04px 8834.85px " y="2469.02px 2469.02px 2469.02px 2469.02px ">fere</tspan>nt micr<tspan x="9194.27px " y="2469.02px ">o</tspan>or<tspan x="9340.48px " y="2469.02px ">g</tspan>anisms in a mixtur<tspan x="10204.4px " y="2469.02px ">e</tspan>. T<tspan x="10369.1px " y="2469.02px ">h</tspan>e mixtur<tspan x="10788.4px " y="2469.02px ">e</tspan> is usually added to a</text><text x="7004.99px" y="2565.02px" style="font-family:'Nunito-Bold', 'Nunito';font-weight:700;font-size:96px;">mol<tspan x="7170.4px " y="2565.02px ">t</tspan>en agar medium w<tspan x="8029.6px " y="2565.02px ">h</tspan>ich w<tspan x="8322.98px " y="2565.02px ">i</tspan>ll allo<tspan x="8577.18px " y="2565.02px ">w</tspan> f<tspan x="8719.26px " y="2565.02px ">o</tspan>r the colonies to e<tspan x="9558.4px 9608.13px " y="2565.02px 2565.02px ">ve</tspan>nly be disbur<tspan x="10229.1px " y="2565.02px ">s</tspan>ed and gr<tspan x="10695.9px 10750.3px 10828.9px " y="2565.02px 2565.02px 2565.02px ">ow.</tspan></text></g><text x="810.172px" y="13394.1px" style="font-family:'Nunito-Bold', 'Nunito';font-weight:700;font-size:604.167px;">P<tspan x="1202.88px " y="13394.1px ">C</tspan>R Ampliﬁcation:</text><text x="791.769px" y="15178.6px" style="font-family:'Nunito-Bold', 'Nunito';font-weight:700;font-size:625px;">P<tspan x="1193.02px " y="15178.6px ">o</tspan>ur Plate P<tspan x="4369.89px 4603.02px " y="15178.6px 15178.6px ">ro</tspan>cedur<tspan x="6569.89px " y="15178.6px ">e</tspan></text><g transform="matrix(2.08333,0,0,2.08333,-13755.5,8628.6)"><text x="7004.99px" y="2469.02px" style="font-family:'Nunito-Bold', 'Nunito';font-weight:700;font-size:96px;">Ampliﬁcation <tspan x="7635.43px " y="2469.02px ">i</tspan>s <tspan x="7746.7px " y="2469.02px ">t</tspan>he <tspan x="7929.59px " y="2469.02px ">m</tspan>os<tspan x="8114.68px 8150.11px 8190.44px " y="2469.02px 2469.02px 2469.02px ">t i</tspan>mpor<tspan x="8452.61px " y="2469.02px ">t</tspan>ant <tspan x="8671.79px " y="2469.02px ">p</tspan>ar<tspan x="8822.41px 8857.84px 8898.17px " y="2469.02px 2469.02px 2469.02px ">t i</tspan>n <tspan x="9019.04px " y="2469.02px ">D</tspan>NA <tspan x="9274.7px " y="2469.02px ">s</tspan>equencing. <tspan x="9842.26px " y="2469.02px ">I</tspan>n <tspan x="9965.72px " y="2469.02px ">t</tspan>his <tspan x="10168.6px 10214.7px " y="2469.02px 2469.02px ">st</tspan>ep <tspan x="10399.1px 10454px 10488.4px 10528.7px " y="2469.02px 2469.02px 2469.02px 2469.02px ">of D</tspan>NA <tspan x="10784.4px " y="2469.02px ">t</tspan>he <tspan x="10967.2px 11003px 11054px 11100.1px 11135.5px 11175.9px 11230.8px 11265.1px 11305.5px " y="2469.02px 2469.02px 2469.02px 2469.02px 2469.02px 2469.02px 2469.02px 2469.02px 2469.02px ">rest of t</tspan>he <tspan x="11488.4px " y="2469.02px ">D</tspan>NA <tspan x="11744px " y="2469.02px ">i</tspan>s</text><text x="7004.99px" y="2565.02px" style="font-family:'Nunito-Bold', 'Nunito';font-weight:700;font-size:96px;">discar<tspan x="7268.13px " y="2565.02px ">d</tspan>ed <tspan x="7463.5px " y="2565.02px ">a</tspan>nd <tspan x="7658.2px " y="2565.02px ">t</tspan>he <tspan x="7829.77px " y="2565.02px ">p</tspan>ar<tspan x="7980.39px 8015.82px 8044.82px " y="2565.02px 2565.02px 2565.02px ">t t</tspan>hat <tspan x="8252.68px " y="2565.02px ">t</tspan>he <tspan x="8424.24px " y="2565.02px ">s</tspan>cientis<tspan x="8755.06px 8790.48px 8819.49px 8900.99px " y="2565.02px 2565.02px 2565.02px 2565.02px ">t wa</tspan>nts <tspan x="9119.98px " y="2565.02px ">t</tspan>o <tspan x="9239.61px 9285.69px " y="2565.02px 2565.02px ">st</tspan>udy <tspan x="9513.9px " y="2565.02px ">i</tspan>s <tspan x="9613.85px " y="2565.02px ">a</tspan>mpliﬁed. <tspan x="10076.2px 10177.2px 10228.2px 10257.2px " y="2565.02px 2565.02px 2565.02px 2565.02px ">We s</tspan>hould <tspan x="10581.8px 10632.6px " y="2565.02px 2565.02px ">ke</tspan>ep <tspan x="10821.2px " y="2565.02px ">i</tspan>n <tspan x="10930.8px " y="2565.02px ">m</tspan>ind <tspan x="11181.8px " y="2565.02px ">t</tspan>hat <tspan x="11389.7px " y="2565.02px ">t</tspan>he <tspan x="11561.2px " y="2565.02px ">e</tspan>ntir<tspan x="11764px " y="2565.02px ">e</tspan></text><text x="7004.99px" y="2661.02px" style="font-family:'Nunito-Bold', 'Nunito';font-weight:700;font-size:96px;">genome <tspan x="7391.85px 7446.76px 7481.13px 7512.79px " y="2661.02px 2661.02px 2661.02px 2661.02px ">of a</tspan>n <tspan x="7652.44px 7707.65px 7743.45px " y="2661.02px 2661.02px 2661.02px ">org</tspan>anism <tspan x="8095.94px " y="2661.02px ">c</tspan>an <tspan x="8282.45px " y="2661.02px ">b</tspan>e <tspan x="8422.78px " y="2661.02px ">s</tspan>equenced. <tspan x="8951.72px " y="2661.02px ">U</tspan>sing <tspan x="9238.93px " y="2661.02px ">t</tspan>he <tspan x="9413.15px 9459.23px " y="2661.02px 2661.02px ">st</tspan>andar<tspan x="9747.99px 9805.69px 9837.35px 9899.75px " y="2661.02px 2661.02px 2661.02px 2661.02px ">d PC</tspan>R <tspan x="10063.2px " y="2661.02px ">c</tspan>ondi<tspan x="10305.5px " y="2661.02px ">t</tspan>ions(<tspan x="10556.8px 10606.8px " y="2661.02px 2661.02px ">ex</tspan>plained <tspan x="11012.6px " y="2661.02px ">i</tspan>n <tspan x="11124.8px " y="2661.02px ">t</tspan>he <tspan x="11299.1px " y="2661.02px ">p</tspan>ar<tspan x="11445.2px " y="2661.02px ">a</tspan>gr<tspan x="11591.7px " y="2661.02px ">a</tspan>ph),</text><text x="7004.99px" y="2757.02px" style="font-family:'Nunito-Bold', 'Nunito';font-weight:700;font-size:96px;">the <tspan x="7172.59px " y="2757.02px ">a</tspan>mpliﬁcation <tspan x="7768.36px 7826.05px 7861.86px " y="2757.02px 2757.02px 2757.02px ">pro</tspan>cess <tspan x="8133.05px " y="2757.02px ">i</tspan>s <tspan x="8229.04px " y="2757.02px ">d</tspan>one; <tspan x="8497.92px " y="2757.02px ">3</tspan>5 <tspan x="8638.17px 8685.01px 8734.74px " y="2757.02px 2757.02px 2757.02px ">cyc</tspan>les<tspan x="8903.03px 8926.84px 8951.88px " y="2757.02px 2757.02px 2757.02px ">, d</tspan>enatur<tspan x="9296.14px " y="2757.02px ">a</tspan>tion <tspan x="9544.19px " y="2757.02px ">a</tspan>t <tspan x="9656.5px " y="2757.02px ">9</tspan>4°C<tspan x="9872.98px 9896.78px 9921.83px " y="2757.02px 2757.02px 2757.02px ">, a</tspan>nnealing <tspan x="10376.9px " y="2757.02px ">a</tspan>t <tspan x="10489.2px " y="2757.02px ">5</tspan>5°C <tspan x="10729.7px " y="2757.02px ">t</tspan>o <tspan x="10845.4px " y="2757.02px ">6</tspan>5°C <tspan x="11086px " y="2757.02px ">a</tspan>nd <tspan x="11276.7px 11326.7px " y="2757.02px 2757.02px ">ex</tspan>tension <tspan x="11727.7px " y="2757.02px ">a</tspan>t</text><text x="7004.99px" y="2853.02px" style="font-family:'Nunito-Bold', 'Nunito';font-weight:700;font-size:96px;">72°C<tspan x="7221.57px " y="2853.02px ">.</tspan></text></g><g transform="matrix(2.08333,0,0,2.08333,-13757.7,12740.3)"><text x="7004.99px" y="2469.02px" style="font-family:'Nunito-Bold', 'Nunito';font-weight:700;font-size:96px;">T<tspan x="7068.93px " y="2469.02px ">h</tspan>is is used to count the number o<tspan x="8538.21px " y="2469.02px ">f</tspan> dif<tspan x="8714.17px 8748.06px 8799.04px 8834.85px " y="2469.02px 2469.02px 2469.02px 2469.02px ">fere</tspan>nt micr<tspan x="9194.27px " y="2469.02px ">o</tspan>or<tspan x="9340.48px " y="2469.02px ">g</tspan>anisms in a mixtur<tspan x="10204.4px " y="2469.02px ">e</tspan>. T<tspan x="10369.1px " y="2469.02px ">h</tspan>e mixtur<tspan x="10788.4px " y="2469.02px ">e</tspan> is usually added to a</text><text x="7004.99px" y="2565.02px" style="font-family:'Nunito-Bold', 'Nunito';font-weight:700;font-size:96px;">mol<tspan x="7170.4px " y="2565.02px ">t</tspan>en agar medium w<tspan x="8029.6px " y="2565.02px ">h</tspan>ich w<tspan x="8322.98px " y="2565.02px ">i</tspan>ll allo<tspan x="8577.18px " y="2565.02px ">w</tspan> f<tspan x="8719.26px " y="2565.02px ">o</tspan>r the colonies to e<tspan x="9558.4px 9608.13px " y="2565.02px 2565.02px ">ve</tspan>nly be disbur<tspan x="10229.1px " y="2565.02px ">s</tspan>ed and gr<tspan x="10695.9px 10750.3px 10828.9px " y="2565.02px 2565.02px 2565.02px ">ow.</tspan></text></g><text x="813.97px" y="16341.4px" style="font-family:'Nunito-Bold', 'Nunito';font-weight:700;font-size:625px;">P<tspan x="1220.22px 1453.35px " y="16341.4px 16341.4px ">ro</tspan>me<tspan x="2685.85px " y="16341.4px ">t</tspan>hION</text><text x="823.95px" y="17566.2px" style="font-family:'Nunito-Bold', 'Nunito';font-weight:700;font-size:625px;">Sanger Sequencing:</text><g transform="matrix(2.08333,0,0,2.08333,-13740.3,11557.7)"><text x="7004.99px" y="2469.02px" style="font-family:'Nunito-Bold', 'Nunito';font-weight:700;font-size:96px;">Similar <tspan x="7339.28px " y="2469.02px ">t</tspan>o <tspan x="7457.38px " y="2469.02px ">m</tspan>inION <tspan x="7822.68px " y="2469.02px ">a</tspan>nd <tspan x="8015.85px " y="2469.02px ">g</tspan>ridION <tspan x="8393.73px 8451.42px 8501.63px 8553.76px " y="2469.02px 2469.02px 2469.02px 2469.02px ">devi</tspan>ces <tspan x="8750px 8800.02px " y="2469.02px 2469.02px ">ex</tspan>plained <tspan x="9201.7px " y="2469.02px ">a</tspan>bo<tspan x="9365.67px 9415.4px 9466.37px 9493.85px " y="2469.02px 2469.02px 2469.02px 2469.02px ">ve b</tspan>ut <tspan x="9670.03px 9696.43px 9731.85px 9759.33px " y="2469.02px 2469.02px 2469.02px 2469.02px ">it i</tspan>s <tspan x="9857.75px " y="2469.02px ">m</tspan>ainly <tspan x="10176.3px " y="2469.02px ">u</tspan>sed <tspan x="10414.6px 10448.5px " y="2469.02px 2469.02px ">fo</tspan>r <tspan x="10567.9px " y="2469.02px ">l</tspan>ar<tspan x="10679.9px " y="2469.02px ">g</tspan>e <tspan x="10816.5px " y="2469.02px ">s</tspan>cale <tspan x="11064.6px 11122.3px 11158.1px " y="2469.02px 2469.02px 2469.02px ">pro</tspan>jec<tspan x="11335.8px " y="2469.02px ">t</tspan>s <tspan x="11445.2px " y="2469.02px ">a</tspan>s <tspan x="11571.1px 11597.5px 11632.9px 11660.4px " y="2469.02px 2469.02px 2469.02px 2469.02px ">it h</tspan>as</text><text x="7004.99px" y="2565.02px" style="font-family:'Nunito-Bold', 'Nunito';font-weight:700;font-size:96px;">the abili<tspan x="7358.27px 7394.46px " y="2565.02px 2565.02px ">ty</tspan> to run 24 and 48 ﬂo<tspan x="8349.57px " y="2565.02px ">w</tspan> cells r<tspan x="8712.74px " y="2565.02px ">e</tspan>spec<tspan x="8966.08px " y="2565.02px ">t</tspan>iv<tspan x="9075.61px " y="2565.02px ">e</tspan>ly<tspan x="9197.82px " y="2565.02px ">.</tspan></text></g><g transform="matrix(2.08333,0,0,2.08333,-13766,17039.5)"><text x="7004.99px" y="2469.02px" style="font-family:'Nunito-Bold', 'Nunito';font-weight:700;font-size:96px;">T<tspan x="7068.93px " y="2469.02px ">h</tspan>e me<tspan x="7336.19px " y="2469.02px ">t</tspan>hod is r<tspan x="7699.45px 7750.14px 7784.03px " y="2469.02px 2469.02px 2469.02px ">efe</tspan>rring to hy<tspan x="8295.71px 8353.41px 8389.22px " y="2469.02px 2469.02px 2469.02px ">dro</tspan>gen-link<tspan x="8807.01px " y="2469.02px ">e</tspan>d bases that f<tspan x="9460.09px " y="2469.02px ">o</tspan>rm nucleic acids in DNA and RNA<tspan x="10997.6px " y="2469.02px ">.</tspan> T<tspan x="11111.4px " y="2469.02px ">h</tspan>is me<tspan x="11398.6px " y="2469.02px ">t</tspan>hod is</text><text x="7004.99px" y="2565.02px" style="font-family:'Nunito-Bold', 'Nunito';font-weight:700;font-size:96px;">kno<tspan x="7167.04px " y="2565.02px ">w</tspan>n as W<tspan x="7556.8px " y="2565.02px ">a</tspan>tson Crick Base pairing because Dr<tspan x="9148.29px " y="2565.02px ">.</tspan> F<tspan x="9251.49px 9288.06px " y="2565.02px 2565.02px ">ra</tspan>ncis Crick and Dr<tspan x="10089.1px " y="2565.02px ">.</tspan> James W<tspan x="10533.5px " y="2565.02px ">a</tspan>tson because the<tspan x="11333px " y="2565.02px ">y</tspan> w<tspan x="11490.9px 11541.9px 11577.7px " y="2565.02px 2565.02px 2565.02px ">ere</tspan> the</text><text x="7004.99px" y="2661.02px" style="font-family:'Nunito-Bold', 'Nunito';font-weight:700;font-size:96px;">people that disco<tspan x="7762.72px 7812.45px 7863.42px 7899.23px " y="2661.02px 2661.02px 2661.02px 2661.02px ">vere</tspan>d the f<tspan x="8236.38px 8288.22px 8335.36px " y="2661.02px 2661.02px 2661.02px ">act</tspan> that the DNA has a helical shape.Dr<tspan x="9968.99px " y="2661.02px ">.</tspan> F<tspan x="10072.2px 10108.8px " y="2661.02px 2661.02px ">ra</tspan>ncis Crick disco<tspan x="10841.1px 10890.8px 10941.8px 10977.6px " y="2661.02px 2661.02px 2661.02px 2661.02px ">vere</tspan>d that the t<tspan x="11521.9px 11603.3px " y="2661.02px 2661.02px ">wo</tspan></text><text x="7004.99px" y="2757.02px" style="font-family:'Nunito-Bold', 'Nunito';font-weight:700;font-size:96px;">s<tspan x="7051.07px 7086.49px 7123.07px " y="2757.02px 2757.02px 2757.02px ">tra</tspan>nds o<tspan x="7416.26px " y="2757.02px ">f</tspan> the DNA ar<tspan x="7974.21px " y="2757.02px ">e</tspan> able to f<tspan x="8412.64px " y="2757.02px ">o</tspan>rm the helical shape and inter<tspan x="9776.99px 9813.18px 9896.99px " y="2757.02px 2757.02px 2757.02px ">twi</tspan>ne w<tspan x="10138.3px 10164.7px " y="2757.02px 2757.02px ">it</tspan>h the help o<tspan x="10721.1px " y="2757.02px ">f</tspan> hy<tspan x="10887.3px 10945px 10980.8px " y="2757.02px 2757.02px 2757.02px ">dro</tspan>gen bonds<tspan x="11500.1px " y="2757.02px ">.</tspan> DNA</text><text x="7004.99px" y="2853.02px" style="font-family:'Nunito-Bold', 'Nunito';font-weight:700;font-size:96px;">is composed o<tspan x="7636.86px " y="2853.02px ">f</tspan> f<tspan x="7731.14px " y="2853.02px ">o</tspan>ur nucleobases adenine (A), thymine (<tspan x="9457.12px 9519.52px " y="2853.02px 2853.02px ">T)</tspan>, guanine (<tspan x="10015.5px 10085.5px " y="2853.02px 2853.02px ">G)</tspan>, and cy<tspan x="10459.5px " y="2853.02px ">t</tspan>osine (<tspan x="10787.3px " y="2853.02px ">C</tspan>). P<tspan x="10998.6px " y="2853.02px ">u</tspan>rines ar<tspan x="11382.7px " y="2853.02px ">e</tspan> adenine</text><text x="7004.99px" y="2949.02px" style="font-family:'Nunito-Bold', 'Nunito';font-weight:700;font-size:96px;">&amp; guanine w<tspan x="7559.39px " y="2949.02px ">h</tspan>ile p<tspan x="7798.24px " y="2949.02px ">y</tspan>rimidine bases ar<tspan x="8600.61px " y="2949.02px ">e</tspan> cy<tspan x="8776.19px " y="2949.02px ">t</tspan>osine &amp; thymine. Adenine pair<tspan x="10133.3px " y="2949.02px ">s</tspan> w<tspan x="10289.7px 10316.1px " y="2949.02px 2949.02px ">it</tspan>h thymine and cy<tspan x="11107.5px " y="2949.02px ">t</tspan>osine pair<tspan x="11572.4px " y="2949.02px ">s</tspan></text><text x="7004.99px" y="3045.02px" style="font-family:'Nunito-Bold', 'Nunito';font-weight:700;font-size:96px;">w<tspan x="7088.8px 7115.2px " y="3045.02px 3045.02px ">it</tspan>h guanine.</text></g><text x="804.419px" y="18817.4px" style="font-family:'Nunito-Bold', 'Nunito';font-weight:700;font-size:625px;">Spr<tspan x="1811.92px " y="18817.4px ">e</tspan>ad Plate P<tspan x="5073.17px 5306.29px " y="18817.4px 18817.4px ">ro</tspan>cedur<tspan x="7273.17px " y="18817.4px ">e</tspan>:</text><text x="819.784px" y="21862px" style="font-family:'Nunito-Bold', 'Nunito';font-weight:700;font-size:625px;">W<tspan x="1477.28px " y="21862px ">a</tspan>tson Crick Base P<tspan x="6847.28px " y="21862px ">a</tspan>ir Matching:</text><g transform="matrix(2.08333,0,0,2.08333,-13749.9,14033.7)"><text x="7004.99px" y="2469.02px" style="font-family:'Nunito-Bold', 'Nunito';font-weight:700;font-size:96px;">T<tspan x="7068.93px " y="2469.02px ">h</tspan>is technique is used to separ<tspan x="8376.35px " y="2469.02px ">a</tspan>te the dif<tspan x="8824.77px 8858.66px 8909.63px 8945.44px " y="2469.02px 2469.02px 2469.02px 2469.02px ">fere</tspan>nt micr<tspan x="9304.86px " y="2469.02px ">o</tspan>or<tspan x="9451.07px " y="2469.02px ">g</tspan>anisms in a sample. T<tspan x="10445.3px " y="2469.02px ">o</tspan> do this is i<tspan x="10977.4px " y="2469.02px ">t</tspan> disbur<tspan x="11317px " y="2469.02px ">s</tspan>ed o<tspan x="11552.7px 11602.4px " y="2469.02px 2469.02px ">ve</tspan>r</text><text x="7004.99px" y="2565.02px" style="font-family:'Nunito-Bold', 'Nunito';font-weight:700;font-size:96px;">the top o<tspan x="7402.82px " y="2565.02px ">f</tspan> an agar plate then colonies o<tspan x="8733.47px " y="2565.02px ">f</tspan> these micr<tspan x="9250.82px " y="2565.02px ">o</tspan>or<tspan x="9397.02px " y="2565.02px ">g</tspan>anisms w<tspan x="9874.24px " y="2565.02px ">i</tspan>ll f<tspan x="10007.3px " y="2565.02px ">o</tspan>rm. Scientis<tspan x="10578.4px " y="2565.02px ">t</tspan>s also use this technique to</text><text x="7004.99px" y="2661.02px" style="font-family:'Nunito-Bold', 'Nunito';font-weight:700;font-size:96px;">calculate v<tspan x="7471.26px " y="2661.02px ">i</tspan>able plate counts and to calculate the concentr<tspan x="9549.95px " y="2661.02px ">a</tspan>tion o<tspan x="9853.89px " y="2661.02px ">f</tspan> cells that came fr<tspan x="10668px " y="2661.02px ">o</tspan>m the sample.</text></g><text x="804.419px" y="20388.8px" style="font-family:'Nunito-Bold', 'Nunito';font-weight:700;font-size:625px;">S<tspan x="1198.79px 1429.42px 1662.54px " y="20388.8px 20388.8px 20388.8px ">tre</tspan>ak Plate P<tspan x="4883.17px 5116.29px " y="20388.8px 20388.8px ">ro</tspan>cedur<tspan x="7083.17px " y="20388.8px ">e</tspan></text><g transform="matrix(2.08333,0,0,2.08333,-13749.9,15605.1)"><text x="7004.99px" y="2469.02px" style="font-family:'Nunito-Bold', 'Nunito';font-weight:700;font-size:96px;">T<tspan x="7068.93px " y="2469.02px ">h</tspan>is pr<tspan x="7315.55px " y="2469.02px ">o</tspan>cedur<tspan x="7617.66px " y="2469.02px ">e</tspan> tak<tspan x="7832.7px " y="2469.02px ">e</tspan>s bac<tspan x="8112.93px " y="2469.02px ">t</tspan>eria fr<tspan x="8408.51px " y="2469.02px ">o</tspan>m colonies and isolates them into a pur<tspan x="10188.8px " y="2469.02px ">e</tspan> cul<tspan x="10394.7px " y="2469.02px ">t</tspan>ur<tspan x="10521.5px " y="2469.02px ">e</tspan>. In this pr<tspan x="11013.5px " y="2469.02px ">o</tspan>cedur<tspan x="11315.6px " y="2469.02px ">e</tspan> a mixtur<tspan x="11756.5px " y="2469.02px ">e</tspan></text><text x="7004.99px" y="2565.02px" style="font-family:'Nunito-Bold', 'Nunito';font-weight:700;font-size:96px;">o<tspan x="7059.9px " y="2565.02px ">f</tspan> cells ar<tspan x="7427.1px " y="2565.02px ">e</tspan> s<tspan x="7550.18px 7585.6px 7621.41px " y="2565.02px 2565.02px 2565.02px ">tre</tspan>ak<tspan x="7775.01px " y="2565.02px ">e</tspan>d o<tspan x="7964.13px 8013.86px " y="2565.02px 2565.02px ">ve</tspan>r an agar nutrient based medium. T<tspan x="9623.87px " y="2565.02px ">h</tspan>e cells ar<tspan x="10063.8px " y="2565.02px ">e</tspan> s<tspan x="10186.9px 10222.3px 10258.1px " y="2565.02px 2565.02px 2565.02px ">tre</tspan>ak<tspan x="10411.7px " y="2565.02px ">e</tspan>d in a pe<tspan x="10838.8px " y="2565.02px ">t</tspan>ri dish f<tspan x="11206.1px " y="2565.02px ">o</tspan>ur times one</text><text x="7004.99px" y="2661.02px" style="font-family:'Nunito-Bold', 'Nunito';font-weight:700;font-size:96px;">in each quadr<tspan x="7602.78px " y="2661.02px ">a</tspan>nt<tspan x="7748.13px " y="2661.02px ">.</tspan></text></g></g></svg>